<svg xmlns="http://www.w3.org/2000/svg" xmlns:xlink="http://www.w3.org/1999/xlink" viewBox="0 0 813 1260"><defs><style>.cls-1{fill:none;}.cls-2{clip-path:url(#clip-path);}</style><clipPath id="clip-path" transform="translate(11 232.46)"><path class="cls-1" d="M244.88,21,209.35,48.89a6,6,0,0,0-1,1l-25.72,34a4.94,4.94,0,0,0-.49.76l-17,31.44a6.42,6.42,0,0,0-.37.85L151.72,153.2a4.68,4.68,0,0,0-.21.73l-12.06,51a6.61,6.61,0,0,0-.15.89l-4.85,49a5.89,5.89,0,0,1-.18,1l-13.54,52.4a7.43,7.43,0,0,0-.16.82l-8.79,67.57a4.48,4.48,0,0,1-.11.62l-15,66.27c0,.11,0,.21-.07.32l-8.49,48a5.17,5.17,0,0,1-.16.68L69.39,556.77c0,.16-.1.31-.15.47L50.79,606.66a6,6,0,0,1-1.35,2.12c-4.91,4.88-28.93,28.16-37.73,25.77C2.55,632.06.29,653.9,0,656.84c0,.21,0,.41,0,.62v62.36l.39,28.25c.1,6.83,8.39,8,9.86,1.39l2.87-12.86a5.71,5.71,0,0,1,2.79-3.87l16.21-8.53a4.58,4.58,0,0,1,6.1,1.89l14.19,22.77a6.48,6.48,0,0,1,.93,2.71L60.19,814a6.07,6.07,0,0,0,2.09,4l8.3,6.84c2.87,2.37,6.88.62,7.74-3.37l2.21-10.26c.9-4.23,5.3-5.86,8.12-3h0a6.45,6.45,0,0,1,1.64,5.61L82.23,860.5a7,7,0,0,0,0,2.09l7.57,55.32c.54,4,4.25,6.13,7.29,4.25l9.83-6.08a4.58,4.58,0,0,1,6.4,1.75L124.53,936a4.61,4.61,0,0,0,8.15-.06L152,903.8a4.58,4.58,0,0,1,7.78-.59l24.36,31a6.21,6.21,0,0,1,1.11,2.26l2.45,9.41c1.2,4.62,6.39,5.65,8.83,1.75l30.63-49a5.22,5.22,0,0,1,1.9-1.84l9.45-5.23c3.26-1.81,7,.89,7.15,5.1l1.08,37.64a6.68,6.68,0,0,1-.77,3.31l-20.71,38.53a6.35,6.35,0,0,0-.6,1.61l-4.2,18.41c-.84,3.71,1.54,7.36,4.82,7.38l449.05,2.09c1.32,0,2.1-1.72,1.37-3l-28.12-49a1.93,1.93,0,0,1-.23-.62L642.8,931.1a1.7,1.7,0,0,0-.13-.4L629,898.63a6.88,6.88,0,0,1-.38-1.19l-13.78-29.19a33,33,0,0,1-3.1-13.66l-.49-44.22a6.66,6.66,0,0,0-.19-.77l-17.55-54.89a1.57,1.57,0,0,1-.08-.31l-15-91.13a2.57,2.57,0,0,0-.2-.61L563.28,633a2.22,2.22,0,0,1-.23-1l-.83-61.4a8.12,8.12,0,0,0-.07-.85L544.32,442a9.06,9.06,0,0,1-.07-.91l-.73-168.71a6.57,6.57,0,0,0-.86-3.27l-9.32-16a6.7,6.7,0,0,1-.73-4.64l4-20a6.94,6.94,0,0,0-.06-2.94c-2.92-12-7.22-29.18-12.76-49.78-9.66-35.91-14.61-54.13-20.78-66.76C490.81,83.84,472.18,60,470,57.15a5.68,5.68,0,0,0-.47-.51L431.11,19.13A4.89,4.89,0,0,0,429.33,18L382.77,1.72a4.33,4.33,0,0,0-1.33-.24L324.39,0a5.06,5.06,0,0,0-.55,0L286.53,3.86A80.93,80.93,0,0,0,244.88,21Z"/></clipPath></defs><g id="Layer_2" data-name="Layer 2"><g id="Layer_1-2" data-name="Layer 1"><g class="cls-2"><image width="1290" height="2032" transform="scale(0.63 0.62)" xlink:href="../88415626029866453551710214241675.jpg"/></g></g></g></svg>