<svg xmlns="http://www.w3.org/2000/svg" viewBox="0 0 76.5 89.16"><defs><style>.cls-1{fill:none;stroke:rgb(51 0 83);stroke-linecap:round;stroke-linejoin:round;stroke-width:10px;}</style></defs><g id="Layer_2" data-name="Layer 2"><g id="Layer_1-2" data-name="Layer 1"><path class="cls-1" d="M18.17,72.05c2,3,5.75,1.59,7.5-1.5,3.09-5.47.92-9.67-3-12-3.47-2-9-.44-12.24,2.74A13.64,13.64,0,0,0,7.09,75.94c2.3,5.75,8.78,8.88,15.06,8.1,7-.87,11.18-6.33,12.22-7.7,5.26-7,3.76-14.71,2.81-17.86a12.54,12.54,0,0,1-.41-3.25c-.59-27.68,25.4-43.18,25.4-43.18"/><path class="cls-1" d="M19.17,34.05c-3-3-2.36-7.66,1-9,5-2,8.27-1.1,11.5,2.5,2.84,3.17,2.67,9.41-.12,13a14.77,14.77,0,0,1-15,4.89A15.44,15.44,0,0,1,5,31.52c-.39-7,4.67-11.67,5.94-12.84,5.7-5.23,13.2-6.1,17.13-4.91,2.58.78,7.58,3.78,7.73-.15C36.4-1.16,59.67,7.55,59.67,7.55h0c.46-.11,5.42-1.25,9,2,3,2.43,4,8.73,1,13-.15.2-3.77,5.11-9,4-4-.85-2.78-1.53-3-2"/></g></g></svg>