<svg xmlns="http://www.w3.org/2000/svg" viewBox="0 0 104 87"><defs><style>.cls-1,.cls-2,.cls-3,.cls-4{fill:none;stroke:rgb(51 0 83);stroke-linecap:round;stroke-linejoin:round;}.cls-1{stroke-width:6px;}.cls-2{stroke-width:10px;}.cls-3{stroke-width:8px;}.cls-4{stroke-width:5px;}</style></defs><g id="Layer_2" data-name="Layer 2"><g id="Layer_1-2" data-name="Layer 1"><path class="cls-1" d="M3,26a15.4,15.4,0,0,0,8,3c4.74.28,6.41-2.19,13-3,3.16-.38,6.59-.8,10,1a13.65,13.65,0,0,1,6,7"/><path class="cls-2" d="M37,9A22.46,22.46,0,0,1,49,5c4.48-.07,6.65,1.48,12,2A34.07,34.07,0,0,0,73,6"/><path class="cls-3" d="M56,22a19.21,19.21,0,0,0,9,4c4.8.72,9.07-.69,13-2,5.53-1.83,5.92-2,9-2,4,0,7,2,9,3a6.83,6.83,0,0,1,4,6"/><path class="cls-2" d="M67,44a13.24,13.24,0,0,0,7,4,13.58,13.58,0,0,0,10-2"/><path class="cls-1" d="M22,28C32.74,44.83,38.6,47.71,42,47c1.16-.24,3.77-1.26,6,0,1.9,1.09,2.66,3.35,3,5"/><path class="cls-1" d="M74,26c-.55-.16-10.44-2.88-18,4-6.41,5.83-6.06,13.93-6,15"/><path class="cls-1" d="M48,9q.49,18.51,1,37"/><path class="cls-4" d="M52,49c9.74,3.17,18.85,2.19,23-3a11,11,0,0,0,2-4"/><line class="cls-1" x1="50.98" y1="47.81" x2="50.98" y2="84"/></g></g></svg>